<svg viewBox="0 0 24 24" fill="none" xmlns="http://www.w3.org/2000/svg">
<path d="M12 0.296875C5.37 0.296875 0 5.67 0 12.2969C0 17.5969 3.438 22.0969 8.205 23.6819C8.805 23.7969 9.025 23.4219 9.025 23.1069C9.025 22.8219 9.015 22.0669 9.01 21.0669C5.672 21.7919 4.968 19.4569 4.968 19.4569C4.425 18.0719 3.633 17.7019 3.633 17.7019C2.546 16.9569 3.717 16.9719 3.717 16.9719C4.922 17.0569 5.555 18.2119 5.555 18.2119C6.621 20.0419 8.355 19.5119 9.04 19.2019C9.15 18.4269 9.46 17.9019 9.8 17.6019C7.135 17.3019 4.335 16.2719 4.335 11.6719C4.335 10.3619 4.805 9.28688 5.575 8.44688C5.455 8.14188 5.045 6.92188 5.69 5.27188C5.69 5.27188 6.7 4.95188 8.985 6.50188C9.945 6.23688 10.975 6.10188 12 6.09688C13.025 6.10188 14.055 6.23688 15.015 6.50188C17.3 4.95188 18.31 5.27188 18.31 5.27188C18.955 6.92188 18.545 8.14188 18.425 8.44688C19.195 9.28688 19.665 10.3619 19.665 11.6719C19.665 16.2819 16.86 17.3019 14.2 17.5919C14.63 17.9619 15.01 18.6919 15.01 19.8119C15.01 21.4219 14.995 22.7169 14.995 23.1069C14.995 23.4219 15.21 23.8019 15.82 23.6819C20.582 22.0919 24 17.5969 24 12.2969C24 5.67 18.625 0.296875 12 0.296875V0.296875Z" fill="currentColor"/>
</svg>
